<svg id="Layer_1" data-name="Layer 1" xmlns="http://www.w3.org/2000/svg" viewBox="0 0 800 800"><defs><style>.cls-1{fill:#e9006a;}.cls-2{fill:#8a006a;}.cls-3{fill:#49006b;}.cls-4{fill:#741287;}.cls-5{fill:#ba00a1;}.cls-6{fill:#f9218b;}</style></defs><path class="cls-1" d="M711.21,400.55C711.21,621.78,532.51,801,312,801H163.7a76.87,76.87,0,0,1-54.64-23.3L235.32,651.41v0h75.9c331.95-14.4,331.64-487.6-.09-501.86H171C71.58,147.32,70.32,3,169.74,0H311.11C531.66,0,711.21,179.32,711.21,400.55Z"/><path class="cls-2" d="M235.32,417.19V651.41L109.06,777.68a71.91,71.91,0,0,1-20.84-50.23V417.19C92.21,316.5,238.52,322.88,235.32,417.19Z"/><path class="cls-3" d="M162,319.46c97.45-3,97.43-144.45,0-147.44C64.55,175,64.57,316.47,162,319.46Zm0-110.58c48.72,1.52,48.71,72.21,0,73.72C113.26,281.08,113.27,210.39,162,208.88Z"/><path class="cls-4" d="M167.64,319c-105.89,7-105.9-153.47,0-146.5C79.5,181.58,79.52,309.93,167.64,319Z"/><path class="cls-4" d="M175.82,282.6a45.72,45.72,0,0,1-6.92-.73c39.47-7.25,39.49-65,0-72.26C221.06,201.23,229.18,280.87,175.82,282.6Z"/><path class="cls-5" d="M115.89,410.64V669.27c-.08,26.46,20.34,48.33,44.8,56.79l-51.63,51.63a72,72,0,0,1-20.84-50.24V417.19c2.53-63.91,62.39-84.68,105-67.23C157,347,117.86,366.4,115.89,410.64Z"/><path class="cls-6" d="M711.21,400.55C711.21,621.77,532.51,801,312,801H242.9l-78.79,0a.27.27,0,0,1-.14,0l.08,0h-.14s-.2,0-.21,0a76.87,76.87,0,0,1-54.64-23.28l51.63-51.63a79.49,79.49,0,0,0,26.52,4.51c34.68-.15,104.66.11,139.13,0,498.88-18.31,497.87-649.73-.81-667.71h-133c-51.06,1.37-73.88,37.88-68.84,71C75,96,89.87,2.43,169.73,0H311.11C531.65,0,711.21,179.33,711.21,400.55Z"/></svg>