<svg id="Layer_1" data-name="Layer 1" xmlns="http://www.w3.org/2000/svg" viewBox="0 0 800 800"><defs><style>.cls-1{fill:#e6e6e6;}</style></defs><path class="cls-1" d="M162.67,319.06c-97.29-3-97.31-144.26,0-147.26C260,174.79,260,316.06,162.67,319.06Z"/><path class="cls-1" d="M711.22,400.05c0,221-178.48,400-398.76,400l-147.88,0c-.69,0,.68,0,0,0,0,0,0,0,0,0-.7,0,.71,0,0,0C124,800,89,767.11,89,726.54V416.67c4-100.57,150.12-94.19,146.92,0v234h75.72c137.59,0,249.86-112.56,249.86-250.57S449.23,149.38,311.64,149.38c-.42,0,.41,0,0,0H164.22C65,147.14,63.72,3,163,0H311.62c.38,0-.4,0,0,0C531.89,0,711.22,179.1,711.22,400.05Z"/></svg>